# xmcd CD database file
#
# Track frame offsets:
#	150
#	9929
#	36869
#	57207
#	71473
#	81757
#	96892
#	121373
#
# Disc length: 1798 seconds
#
# Revision: 0
# Processed by: cddbd v1.5.1PL0 Copyright (c) Steve Scherf et al.
# Submitted via: CDex 1.50
#
DISCID=5c070408
DTITLE=Calawahake - Reflections in a Dark Pool
DYEAR=2003
DGENRE=New Age
TTITLE0=Alone on the Moor
TTITLE1=The Opening
TTITLE2=The Corridor
TTITLE3=Passage into Unknowing
TTITLE4=Somewhere
TTITLE5=The Dark Pool
TTITLE6=Triumph of the Soul
TTITLE7=Back to the Sunlit World
EXTD=YEAR: 2003
EXTT0=
EXTT1=
EXTT2=
EXTT3=
EXTT4=
EXTT5=
EXTT6=
EXTT7=
PLAYORDER=
